<svg xmlns="http://www.w3.org/2000/svg" width="160" height="40.487" viewBox="0 0 160 40.487">
  <g id="logo_v3" data-name="logo v3" transform="translate(-4133.664 650.498)">
    <path id="Tracé_1732" data-name="Tracé 1732" d="M4162.274-624.538c.783,1.189,3.554,9.191,4.745,11.663,2.36,4.9,8.395,4.42,10.833,1.731,3.337-3.677.721-8.219-.86-12.145-1.126-2.8-8.116-21.4-9.441-23.444a6.427,6.427,0,0,0-5.492-2.661,6.145,6.145,0,0,0-5.408,2.954c-2.848,4.576,1.378,8.469,1.809,12.637.532,5.173-.56,9.613-1.946,14.136-.714-.674-4.279-10.429-4.949-12.151-1.589-4.09-3.19-8.146-4.808-12.279-.9-2.31-1.749-3.8-3.824-4.708a7.015,7.015,0,0,0-6.792.652c-4.313,3.461-2.06,7.722-.231,12.353q2.419,6.13,4.817,12.269c1.09,2.8,3.637,10.177,5.038,12.042,2.978,3.961,9.266,2.19,11.572-.943a22.112,22.112,0,0,0,4.106-8.723A18.146,18.146,0,0,1,4162.274-624.538Z" transform="translate(0 -0.868)" fill="#1ab8e8" fill-rule="evenodd"/>
    <g id="Groupe_783" data-name="Groupe 783" transform="translate(4200.947 -650.498)">
      <path id="Tracé_1748" data-name="Tracé 1748" d="M4456.586-634.749a1.791,1.791,0,0,1-1.144-.337,2.334,2.334,0,0,1-.686-1.034l-4.4-12.373a1.459,1.459,0,0,1,.109-1.416,1.61,1.61,0,0,1,1.416-.588,1.607,1.607,0,0,1,1.079.327,2.317,2.317,0,0,1,.621,1.024l3.136,9.345,3.312-9.323a2.327,2.327,0,0,1,.632-1.035,1.512,1.512,0,0,1,1.023-.338,1.4,1.4,0,0,1,.98.338,2.625,2.625,0,0,1,.631,1.056l3.2,9.475,3.268-9.519a2.188,2.188,0,0,1,.61-1.013,1.582,1.582,0,0,1,1.067-.338,1.385,1.385,0,0,1,1.241.588,1.5,1.5,0,0,1,.087,1.416l-4.444,12.394a2.189,2.189,0,0,1-.664,1.013,1.752,1.752,0,0,1-1.122.337,1.707,1.707,0,0,1-1.111-.337,2.375,2.375,0,0,1-.674-1.034l-3.181-9.018-3.223,9.039a2.442,2.442,0,0,1-.665,1.013A1.661,1.661,0,0,1,4456.586-634.749Z" transform="translate(-4450.228 650.498)" fill="#fff"/>
      <path id="Tracé_1749" data-name="Tracé 1749" d="M4543.228-621.377a4.66,4.66,0,0,1-2.112-.458,3.722,3.722,0,0,1-1.449-1.241,3.06,3.06,0,0,1-.534-1.765,2.714,2.714,0,0,1,.61-1.852,3.549,3.549,0,0,1,1.982-.991,18.05,18.05,0,0,1,3.638-.294h.784v-.37a1.789,1.789,0,0,0-.437-1.361,2.162,2.162,0,0,0-1.48-.4,6.491,6.491,0,0,0-1.285.142,8.564,8.564,0,0,0-1.5.468,1.132,1.132,0,0,1-1.023.032,1.1,1.1,0,0,1-.545-.7,1.389,1.389,0,0,1,.077-.948,1.3,1.3,0,0,1,.817-.7,10.756,10.756,0,0,1,1.927-.556,9.382,9.382,0,0,1,1.666-.163,5.318,5.318,0,0,1,3.7,1.122,4.5,4.5,0,0,1,1.22,3.474v4.835q0,1.678-1.525,1.677-1.548,0-1.547-1.677v-.13a2.748,2.748,0,0,1-1.1,1.35A3.392,3.392,0,0,1,4543.228-621.377Zm.741-2.2a2.1,2.1,0,0,0,1.547-.631,2.212,2.212,0,0,0,.632-1.634v-.436h-.763a6.726,6.726,0,0,0-2.374.294,1.029,1.029,0,0,0-.7,1.013,1.3,1.3,0,0,0,.425,1A1.751,1.751,0,0,0,4543.968-623.577Z" transform="translate(-4516.176 637.169)" fill="#fff"/>
      <path id="Tracé_1750" data-name="Tracé 1750" d="M4590.634-634.706a4.4,4.4,0,0,1-2.451-.686,4.557,4.557,0,0,1-1.644-1.938,6.939,6.939,0,0,1-.588-2.974,6.865,6.865,0,0,1,.588-2.962,4.5,4.5,0,0,1,1.644-1.917,4.457,4.457,0,0,1,2.451-.675,4.239,4.239,0,0,1,1.96.457,3.253,3.253,0,0,1,1.35,1.22v-4.639a1.464,1.464,0,0,1,1.634-1.677,1.473,1.473,0,0,1,1.655,1.677v12.394a1.463,1.463,0,0,1-1.633,1.677,1.464,1.464,0,0,1-1.635-1.677v-.065a3.1,3.1,0,0,1-1.339,1.307A4.194,4.194,0,0,1,4590.634-634.706Zm.98-2.461a2.165,2.165,0,0,0,1.709-.762,3.55,3.55,0,0,0,.664-2.375,3.465,3.465,0,0,0-.664-2.341,2.178,2.178,0,0,0-1.709-.752,2.145,2.145,0,0,0-1.7.752,3.511,3.511,0,0,0-.652,2.341,3.6,3.6,0,0,0,.652,2.375A2.133,2.133,0,0,0,4591.614-637.167Z" transform="translate(-4550.903 650.498)" fill="#fff"/>
      <path id="Tracé_1751" data-name="Tracé 1751" d="M4643.069-621.377a6.229,6.229,0,0,1-3-.686A4.831,4.831,0,0,1,4638.1-624a6.02,6.02,0,0,1-.7-2.974,5.974,5.974,0,0,1,.7-2.951,4.762,4.762,0,0,1,1.971-1.928,6.315,6.315,0,0,1,3-.675,6.315,6.315,0,0,1,3,.675,4.836,4.836,0,0,1,1.982,1.928,5.909,5.909,0,0,1,.707,2.951,5.954,5.954,0,0,1-.707,2.974,4.906,4.906,0,0,1-1.982,1.938A6.229,6.229,0,0,1,4643.069-621.377Zm0-2.461a2.165,2.165,0,0,0,1.71-.762,3.555,3.555,0,0,0,.665-2.375,3.47,3.47,0,0,0-.665-2.341,2.177,2.177,0,0,0-1.71-.752,2.143,2.143,0,0,0-1.7.752,3.506,3.506,0,0,0-.653,2.341,3.592,3.592,0,0,0,.653,2.375A2.132,2.132,0,0,0,4643.069-623.838Z" transform="translate(-4589.073 637.169)" fill="#fff"/>
      <path id="Tracé_1752" data-name="Tracé 1752" d="M4459.786-556.2a8.63,8.63,0,0,1-4.248-.98,6.7,6.7,0,0,1-2.711-2.756,8.787,8.787,0,0,1-.947-4.193,8.739,8.739,0,0,1,.947-4.171,6.7,6.7,0,0,1,2.711-2.755,8.622,8.622,0,0,1,4.248-.98,9.013,9.013,0,0,1,2.211.283,7.588,7.588,0,0,1,1.949.762,1.626,1.626,0,0,1,.828.98,1.584,1.584,0,0,1-.1,1.111,1.454,1.454,0,0,1-.774.741,1.3,1.3,0,0,1-1.176-.153,4.924,4.924,0,0,0-1.373-.566,6.174,6.174,0,0,0-1.46-.174,4.189,4.189,0,0,0-3.321,1.274,5.353,5.353,0,0,0-1.122,3.648,5.4,5.4,0,0,0,1.122,3.66,4.172,4.172,0,0,0,3.321,1.285,6.119,6.119,0,0,0,1.427-.175,5.642,5.642,0,0,0,1.405-.544,1.435,1.435,0,0,1,1.219-.163,1.428,1.428,0,0,1,.773.7,1.528,1.528,0,0,1,.12,1.067,1.486,1.486,0,0,1-.741.947,6.654,6.654,0,0,1-1.992.85A9.131,9.131,0,0,1,4459.786-556.2Z" transform="translate(-4451.453 592.298)" fill="#fff"/>
      <path id="Tracé_1753" data-name="Tracé 1753" d="M4510.939-542.749a6.223,6.223,0,0,1-3-.686,4.826,4.826,0,0,1-1.972-1.938,6.027,6.027,0,0,1-.7-2.974,5.978,5.978,0,0,1,.7-2.951,4.759,4.759,0,0,1,1.972-1.928,6.31,6.31,0,0,1,3-.675,6.313,6.313,0,0,1,3,.675,4.835,4.835,0,0,1,1.982,1.928,5.909,5.909,0,0,1,.708,2.951,5.956,5.956,0,0,1-.708,2.974,4.9,4.9,0,0,1-1.982,1.938A6.225,6.225,0,0,1,4510.939-542.749Zm0-2.461a2.165,2.165,0,0,0,1.71-.762,3.552,3.552,0,0,0,.665-2.374,3.468,3.468,0,0,0-.665-2.341,2.179,2.179,0,0,0-1.71-.752,2.146,2.146,0,0,0-1.7.752,3.509,3.509,0,0,0-.653,2.341,3.594,3.594,0,0,0,.653,2.374A2.132,2.132,0,0,0,4510.939-545.21Z" transform="translate(-4491.061 578.844)" fill="#fff"/>
      <path id="Tracé_1754" data-name="Tracé 1754" d="M4559.224-542.749a4.665,4.665,0,0,1-2.113-.457,3.729,3.729,0,0,1-1.448-1.241,3.064,3.064,0,0,1-.534-1.765,2.711,2.711,0,0,1,.61-1.852,3.544,3.544,0,0,1,1.982-.991,18.053,18.053,0,0,1,3.637-.294h.785v-.37a1.8,1.8,0,0,0-.436-1.362,2.167,2.167,0,0,0-1.481-.4,6.486,6.486,0,0,0-1.285.142,8.514,8.514,0,0,0-1.5.468,1.133,1.133,0,0,1-1.023.032,1.1,1.1,0,0,1-.545-.7,1.386,1.386,0,0,1,.077-.948,1.3,1.3,0,0,1,.817-.7,10.77,10.77,0,0,1,1.928-.556,9.4,9.4,0,0,1,1.666-.163,5.318,5.318,0,0,1,3.7,1.121,4.505,4.505,0,0,1,1.22,3.474v4.835q0,1.678-1.525,1.677-1.548,0-1.546-1.677v-.13a2.752,2.752,0,0,1-1.1,1.351A3.4,3.4,0,0,1,4559.224-542.749Zm.74-2.2a2.106,2.106,0,0,0,1.547-.632,2.213,2.213,0,0,0,.631-1.634v-.436h-.763a6.723,6.723,0,0,0-2.374.294,1.029,1.029,0,0,0-.7,1.013,1.3,1.3,0,0,0,.425,1A1.751,1.751,0,0,0,4559.964-544.949Z" transform="translate(-4528.042 578.844)" fill="#fff"/>
      <path id="Tracé_1755" data-name="Tracé 1755" d="M4607.674-542.749a6.4,6.4,0,0,1-3.039-.686,4.771,4.771,0,0,1-1.993-1.949,6.082,6.082,0,0,1-.7-2.984,5.956,5.956,0,0,1,.7-2.962,4.674,4.674,0,0,1,1.993-1.906,6.581,6.581,0,0,1,3.039-.664,7.024,7.024,0,0,1,1.448.163,5.456,5.456,0,0,1,1.492.556,1.164,1.164,0,0,1,.675.729,1.4,1.4,0,0,1-.054.926,1.239,1.239,0,0,1-.588.664,1,1,0,0,1-.948-.076,3.641,3.641,0,0,0-1.7-.457,2.527,2.527,0,0,0-1.993.8,3.275,3.275,0,0,0-.708,2.254,3.326,3.326,0,0,0,.708,2.255,2.494,2.494,0,0,0,1.993.817,3.8,3.8,0,0,0,.827-.1,3.319,3.319,0,0,0,.871-.338.976.976,0,0,1,.948-.066,1.151,1.151,0,0,1,.555.664,1.552,1.552,0,0,1,.022.926,1.166,1.166,0,0,1-.654.741,6.409,6.409,0,0,1-1.481.534A6.57,6.57,0,0,1,4607.674-542.749Z" transform="translate(-4562.768 578.844)" fill="#fff"/>
      <path id="Tracé_1756" data-name="Tracé 1756" d="M4645.948-556.121a1.473,1.473,0,0,1-1.655-1.677v-12.394a1.473,1.473,0,0,1,1.655-1.677,1.463,1.463,0,0,1,1.634,1.677v4.639a3.629,3.629,0,0,1,1.459-1.252,4.557,4.557,0,0,1,1.983-.425q3.768,0,3.768,4.487v4.944a1.473,1.473,0,0,1-1.656,1.677,1.614,1.614,0,0,1-1.209-.436,1.707,1.707,0,0,1-.425-1.242v-4.792a2.474,2.474,0,0,0-.414-1.6,1.506,1.506,0,0,0-1.219-.49,2.19,2.19,0,0,0-1.666.654,2.427,2.427,0,0,0-.621,1.742v4.487A1.463,1.463,0,0,1,4645.948-556.121Z" transform="translate(-4594.181 592.173)" fill="#fff"/>
      <path id="Tracé_1757" data-name="Tracé 1757" d="M4695.449-570.1a2.083,2.083,0,0,1-1.405-.424,1.515,1.515,0,0,1-.49-1.209,1.542,1.542,0,0,1,.49-1.231,2.082,2.082,0,0,1,1.405-.425q1.872,0,1.873,1.656Q4697.322-570.1,4695.449-570.1Zm0,12.83a1.578,1.578,0,0,1-1.23-.468,1.89,1.89,0,0,1-.425-1.318v-7.449q0-1.808,1.655-1.808a1.549,1.549,0,0,1,1.209.468,1.926,1.926,0,0,1,.425,1.34v7.449a1.927,1.927,0,0,1-.414,1.318A1.546,1.546,0,0,1,4695.449-557.27Z" transform="translate(-4630.722 593.3)" fill="#fff"/>
      <path id="Tracé_1758" data-name="Tracé 1758" d="M4718.744-542.792a1.473,1.473,0,0,1-1.655-1.677V-552.2a1.444,1.444,0,0,1,1.612-1.655,1.444,1.444,0,0,1,1.612,1.655v.087a3.572,3.572,0,0,1,1.459-1.329,4.518,4.518,0,0,1,2.048-.457,3.514,3.514,0,0,1,2.832,1.1,5.14,5.14,0,0,1,.936,3.387v4.944a1.472,1.472,0,0,1-1.655,1.677,1.613,1.613,0,0,1-1.209-.436,1.707,1.707,0,0,1-.425-1.242v-4.792a2.474,2.474,0,0,0-.414-1.6,1.505,1.505,0,0,0-1.219-.49,2.192,2.192,0,0,0-1.667.654,2.426,2.426,0,0,0-.62,1.742v4.487A1.464,1.464,0,0,1,4718.744-542.792Z" transform="translate(-4648.18 578.844)" fill="#fff"/>
      <path id="Tracé_1759" data-name="Tracé 1759" d="M4770.917-538.828a12.389,12.389,0,0,1-2.243-.2,7.992,7.992,0,0,1-1.917-.588,1.322,1.322,0,0,1-.806-.74,1.262,1.262,0,0,1,.01-.937,1.333,1.333,0,0,1,.589-.686.967.967,0,0,1,.9-.011,7.031,7.031,0,0,0,1.774.566,9.128,9.128,0,0,0,1.405.131q2.789,0,2.788-2.57v-1.22a3.2,3.2,0,0,1-1.372,1.328,4.268,4.268,0,0,1-2.047.5,4.641,4.641,0,0,1-2.506-.664,4.442,4.442,0,0,1-1.655-1.863,6.311,6.311,0,0,1-.589-2.81,6.263,6.263,0,0,1,.589-2.788,4.449,4.449,0,0,1,1.655-1.862A4.645,4.645,0,0,1,4770-553.9a4.3,4.3,0,0,1,2.024.479,3.177,3.177,0,0,1,1.352,1.263v-.044a1.671,1.671,0,0,1,.424-1.231,1.636,1.636,0,0,1,1.21-.424,1.444,1.444,0,0,1,1.611,1.655v7.972a5.257,5.257,0,0,1-1.459,4.051A6.041,6.041,0,0,1,4770.917-538.828Zm.065-6.883a2.21,2.21,0,0,0,1.753-.763,3.106,3.106,0,0,0,.665-2.113,3.064,3.064,0,0,0-.665-2.1,2.225,2.225,0,0,0-1.753-.752,2.219,2.219,0,0,0-1.765.752,3.1,3.1,0,0,0-.653,2.1,3.143,3.143,0,0,0,.653,2.113A2.2,2.2,0,0,0,4770.982-545.711Z" transform="translate(-4683.907 578.844)" fill="#fff"/>
    </g>
    <g id="Groupe_786" data-name="Groupe 786" transform="translate(4180.021 -650.341)">
      <g id="Groupe_785" data-name="Groupe 785" transform="translate(0 0)">
        <g id="Groupe_784" data-name="Groupe 784">
          <path id="Tracé_1760" data-name="Tracé 1760" d="M4359.807-649.065c-.551-.94-1.135-.908-1.686,0-2.528,3.76-6.353,9.4-6.353,12.22a7.206,7.206,0,0,0,2.107,5.089,7.206,7.206,0,0,0,5.089,2.107,7.207,7.207,0,0,0,5.089-2.107,7.207,7.207,0,0,0,2.106-5.089C4366.16-639.7,4362.335-645.306,4359.807-649.065Zm4.343,15.429a6.156,6.156,0,0,1-2.171,2.107.85.85,0,0,1-1.167-.324.853.853,0,0,1,.324-1.2,4.294,4.294,0,0,0,1.556-1.491,4.222,4.222,0,0,0,.648-2.075.846.846,0,0,1,.908-.81.845.845,0,0,1,.811.908A6.419,6.419,0,0,1,4364.15-633.636Z" transform="translate(-4351.768 649.758)" fill="#1ab8e8"/>
        </g>
      </g>
    </g>
  </g>
</svg>
