<svg xmlns="http://www.w3.org/2000/svg" width="225.518" height="314.714" viewBox="0 0 225.518 314.714">
  <g id="bkg_logo_2" data-name="bkg logo 2" transform="translate(0.5 0.5)" opacity="0.2" style="mix-blend-mode: normal;isolation: isolate">
    <g id="Groupe_785" data-name="Groupe 785" transform="translate(0 0)">
      <g id="Groupe_784" data-name="Groupe 784">
        <path id="Tracé_1760" data-name="Tracé 1760" d="M4477.181-638.948c-8.6-14.665-17.7-14.161-26.3,0C4411.445-580.291,4351.77-492.3,4351.77-448.3a112.42,112.42,0,0,0,32.867,79.39,112.405,112.405,0,0,0,79.4,32.87,112.421,112.421,0,0,0,79.393-32.87,112.4,112.4,0,0,0,32.863-79.39C4576.288-492.807,4516.62-580.291,4477.181-638.948Zm67.758,240.7a96.048,96.048,0,0,1-33.875,32.869c-6.575,3.538-14.672,1.516-18.209-5.056-4.048-7.079-1.515-15.17,5.053-18.711a66.968,66.968,0,0,0,24.278-23.26,65.98,65.98,0,0,0,10.114-32.366,13.185,13.185,0,0,1,14.161-12.64,13.183,13.183,0,0,1,12.637,14.159A100.1,100.1,0,0,1,4544.939-398.243Z" transform="translate(-4351.77 649.758)" fill="none" stroke="#13caee" stroke-width="1"/>
      </g>
    </g>
  </g>
</svg>
