<svg xmlns="http://www.w3.org/2000/svg" width="733.233" height="629.055" viewBox="0 0 733.233 629.055">
  <g id="Groupe_887" data-name="Groupe 887" transform="translate(48.208 -1883.774)">
    <g id="Groupe_799" data-name="Groupe 799" transform="translate(-86.724 -119.504)" opacity="0.5">
      <path id="Tracé_1801" data-name="Tracé 1801" d="M4580-261.593c12.209,18.555,55.436,143.392,74.018,181.955,36.813,76.436,130.957,68.955,169.007,27,52.066-57.37,11.241-128.216-13.416-189.466-17.565-43.642-126.611-333.888-147.29-365.746-13.875-21.4-45.109-42.386-85.678-41.521-42.993.912-69.024,21.39-84.369,46.087-44.424,71.379,21.511,132.118,28.223,197.151,8.3,80.7-8.73,149.967-30.368,220.524-11.133-10.517-66.753-162.7-77.194-189.565-24.8-63.813-49.776-127.075-75.012-191.56-14.106-36.04-27.285-59.314-59.652-73.442-35.323-15.4-80.236-10.441-105.947,10.173-67.3,53.988-32.144,120.473-3.608,192.708q37.746,95.629,75.15,191.4c17.011,43.643,56.739,158.774,78.6,187.854C4368.931,3.754,4467.02-23.88,4503-72.745c34.528-46.926,48.129-76.724,64.055-136.087C4571.368-224.927,4572.85-248.519,4580-261.593Z" transform="translate(-4094.664 2653.175)" fill="none" stroke="#13caee" stroke-width="1" fill-rule="evenodd"/>
    </g>
    <path id="Tracé_1801-2" data-name="Tracé 1801" d="M4654.022-79.638c36.813,76.436,130.957,68.955,169.007,27,52.066-57.37,11.241-128.216-13.416-189.466-17.565-43.642-126.611-333.888-147.29-365.746-13.875-21.4-45.109-42.386-85.678-41.521-42.993.912-69.024,21.39-84.369,46.087-44.424,71.379,21.511,132.118,28.223,197.151,8.3,80.7-8.73,149.967-30.368,220.524-11.133-10.517-66.753-162.7-77.194-189.565-24.8-63.813-49.776-127.075-75.012-191.56-14.106-36.04-27.285-59.314-59.652-73.442-35.323-15.4-80.236-10.441-105.947,10.173-67.3,53.988-32.144,120.473-3.608,192.708q37.746,95.629,75.15,191.4c17.011,43.643,56.739,158.774,78.6,187.854C4368.931,3.754,4467.02-23.88,4503-72.745,4537.53-119.67,4635.44-118.2,4654.022-79.638Z" transform="translate(-4163.664 2533.749)" fill="none" stroke="#13caee" stroke-width="1" fill-rule="evenodd" opacity="0.35"/>
  </g>
</svg>
